<svg id="Layer_1" enable-background="new 0 0 256 256" height="512" viewBox="0 0 256 256" width="512" xmlns="http://www.w3.org/2000/svg"><g><g><path d="m32.035 200.374c-7.535 0-13.665-6.13-13.665-13.665v-123.777c0-7.535 6.13-13.665 13.665-13.665h191.931c7.535 0 13.665 6.13 13.665 13.665v123.776c0 7.535-6.13 13.665-13.665 13.665h-191.931z" fill="#cecece"/><g><path d="m33.036 186.709v-123.776c0-7.535 6.13-13.665 13.665-13.665h-14.666c-7.534 0-13.665 6.13-13.665 13.665v123.776c0 7.535 6.13 13.665 13.665 13.665h14.667c-7.535 0-13.666-6.131-13.666-13.665z" fill="#afafaf"/></g><g><path d="m222.964 186.709v-123.776c0-7.535-6.13-13.665-13.665-13.665h14.667c7.534 0 13.665 6.13 13.665 13.665v123.776c0 7.535-6.13 13.665-13.665 13.665h-14.667c7.534 0 13.665-6.131 13.665-13.665z" fill="#e2e2e2"/></g><path d="m229.221 174.709c0 2.891-2.365 5.256-5.256 5.256h-191.93c-2.891 0-5.256-2.365-5.256-5.256v-111.777c0-2.891 2.365-5.256 5.256-5.256h191.931c2.891 0 5.256 2.365 5.256 5.256v111.777z" fill="#63bce7"/><g><path d="m41.446 174.709v-111.777c0-2.891 2.365-5.256 5.256-5.256h-14.667c-2.891 0-5.256 2.365-5.256 5.256v111.777c0 2.891 2.365 5.256 5.256 5.256h14.667c-2.891 0-5.256-2.366-5.256-5.256z" fill="#6377e7"/></g><g><path d="m214.554 174.709v-111.777c0-2.891-2.365-5.256-5.256-5.256h14.667c2.891 0 5.256 2.365 5.256 5.256v111.777c0 2.891-2.365 5.256-5.256 5.256h-14.667c2.891 0 5.256-2.366 5.256-5.256z" fill="#63e2e7"/></g><path d="m89.809 222.532h76.383v9.197h-76.383z" fill="#9e9e9e"/><path d="m100.67 200.374h54.659v22.158h-54.659z" fill="#cecece"/><g><path d="m100.67 200.374h14.667v22.158h-14.667z" fill="#afafaf"/></g><g><path d="m89.809 222.532h14.667v9.197h-14.667z" fill="#707070"/></g><circle cx="128" cy="190.169" fill="#9e9e9e" r="4.5"/></g><path d="m188.836 40.627-27.329-27.329h-94.343v166.667h121.672z" fill="#f8af23"/><path d="m67.164 130.947h121.673v49.018h-121.673z" fill="#f46275"/><g><path d="m101.827 87.76c.285.794.607 1.559.959 2.316l-7.119 7.119 13.999 13.999 7.119-7.119c.757.352 1.529.674 2.316.959v10.072h19.792v-10.072c.787-.285 1.559-.607 2.316-.959l7.119 7.119 13.999-13.999-7.119-7.119c.352-.757.674-1.521.959-2.316h10.072v-19.792h-10.072c-.285-.787-.607-1.559-.959-2.316l7.119-7.119-13.999-13.999-7.119 7.127c-.757-.352-1.529-.682-2.316-.967v-10.064h-19.793v10.064c-.787.285-1.559.615-2.316.967l-7.119-7.127-13.998 13.999 7.119 7.119c-.352.757-.674 1.529-.959 2.316h-10.065v19.792z" fill="#cecece"/><circle cx="129" cy="77.865" fill="#707070" r="12.603"/><g fill="#3f3679"><path d="m27.323 241.202h-18.003c-.829 0-1.5.671-1.5 1.5s.671 1.5 1.5 1.5h18.003c.829 0 1.5-.671 1.5-1.5s-.671-1.5-1.5-1.5z"/><path d="m246.68 241.202h-18.003c-.828 0-1.5.671-1.5 1.5s.672 1.5 1.5 1.5h18.003c.828 0 1.5-.671 1.5-1.5s-.672-1.5-1.5-1.5z"/><path d="m218.479 241.202h-180.958c-.829 0-1.5.671-1.5 1.5s.671 1.5 1.5 1.5h180.959c.828 0 1.5-.671 1.5-1.5s-.672-1.5-1.501-1.5z"/><path d="m9.32 233.229h80.489 76.383 80.488c.828 0 1.5-.671 1.5-1.5s-.672-1.5-1.5-1.5h-78.988v-7.697c0-.829-.672-1.5-1.5-1.5h-9.362v-19.158h67.137c8.361 0 15.164-6.803 15.164-15.165v-123.776c0-8.362-6.803-15.165-15.164-15.165h-33.63v-7.14c0-.398-.158-.779-.439-1.061l-27.329-27.33c-.281-.281-.663-.439-1.061-.439h-94.344c-.829 0-1.5.671-1.5 1.5v34.47h-33.629c-8.362 0-15.165 6.803-15.165 15.165v123.776c0 8.362 6.803 15.165 15.165 15.165h67.135v19.158h-9.362c-.829 0-1.5.671-1.5 1.5v7.697h-78.988c-.829 0-1.5.671-1.5 1.5s.671 1.5 1.5 1.5zm22.715-54.765c-2.071 0-3.756-1.685-3.756-3.755v-111.777c0-2.071 1.685-3.755 3.756-3.755h33.629v71.77 47.518h-33.629zm36.629-46.017h118.672v46.018h-118.672zm94.343-115.528 22.208 22.208h-22.208zm27.329 114.028v-71.77h33.63c2.07 0 3.755 1.685 3.755 3.755v111.777c0 2.071-1.685 3.755-3.755 3.755h-33.63zm-30.329-116.149v25.83c0 .829.672 1.5 1.5 1.5h25.829v87.319h-118.672v-114.649zm-140.137 171.911v-123.776c0-6.708 5.457-12.165 12.165-12.165h33.629v5.409h-33.629c-3.725 0-6.756 3.03-6.756 6.755v111.777c0 3.725 3.031 6.755 6.756 6.755h35.129 121.672 35.13c3.725 0 6.755-3.03 6.755-6.755v-111.777c0-3.725-3.03-6.755-6.755-6.755h-33.63v-5.409h33.63c6.707 0 12.164 5.457 12.164 12.165v123.776c0 6.708-5.457 12.165-12.164 12.165h-68.637-54.659-68.635c-6.708 0-12.165-5.457-12.165-12.165zm82.3 15.165h51.659v19.158h-51.659zm-10.861 22.158h9.362 54.659 9.362v6.197h-73.383z"/><path d="m128 196.169c3.309 0 6-2.691 6-6s-2.691-6-6-6-6 2.691-6 6 2.691 6 6 6zm0-9c1.654 0 3 1.346 3 3s-1.346 3-3 3-3-1.346-3-3 1.346-3 3-3z"/><path d="m91.762 89.262h9.038c.065.16.132.321.202.483l-6.391 6.392c-.586.586-.586 1.536 0 2.121l13.996 13.997c.586.586 1.535.586 2.121 0l6.392-6.392c.162.069.323.137.483.202v9.038c0 .829.671 1.5 1.5 1.5h19.794c.828 0 1.5-.671 1.5-1.5v-9.038c.16-.065.32-.132.482-.202l6.393 6.392c.586.586 1.535.586 2.121 0l13.996-13.997c.586-.585.586-1.535 0-2.121l-6.392-6.392c.07-.162.137-.323.202-.483h9.037c.828 0 1.5-.671 1.5-1.5v-19.794c0-.829-.672-1.5-1.5-1.5h-9.036c-.065-.16-.133-.321-.202-.483l6.392-6.392c.586-.586.586-1.536 0-2.121l-13.996-13.997c-.586-.586-1.535-.586-2.121 0l-6.393 6.392c-.162-.07-.322-.137-.482-.202v-9.038c0-.829-.672-1.5-1.5-1.5h-19.794c-.829 0-1.5.671-1.5 1.5v9.038c-.16.065-.321.132-.483.202l-6.392-6.392c-.563-.563-1.559-.563-2.121 0l-13.998 13.997c-.586.585-.586 1.535 0 2.121l6.392 6.392c-.07.162-.137.323-.202.483h-9.038c-.829 0-1.5.671-1.5 1.5v19.794c0 .829.672 1.5 1.5 1.5zm1.5-19.794h8.566c.63 0 1.194-.395 1.41-.987.258-.709.557-1.426.915-2.193.267-.571.147-1.249-.299-1.694l-6.062-6.062 11.875-11.875 6.062 6.062c.446.446 1.124.565 1.694.299.767-.357 1.484-.657 2.193-.915.592-.216.987-.779.987-1.41v-8.566h16.794v8.566c0 .63.395 1.193.986 1.409.708.258 1.425.558 2.192.915.571.266 1.249.147 1.694-.299l6.063-6.062 11.875 11.875-6.062 6.062c-.446.446-.565 1.124-.299 1.695.355.761.654 1.478.915 2.192.216.592.778.987 1.409.987h8.565v16.794h-8.565c-.631 0-1.193.395-1.409.987-.261.715-.56 1.432-.915 2.191-.267.572-.147 1.25.299 1.696l6.062 6.062-11.875 11.875-6.063-6.062c-.446-.447-1.124-.566-1.694-.299-.763.355-1.48.655-2.193.915-.592.216-.985.779-.985 1.409v8.566h-16.794v-8.566c0-.63-.394-1.193-.986-1.409-.714-.26-1.432-.56-2.194-.915-.57-.266-1.248-.146-1.694.299l-6.062 6.062-11.875-11.874 6.062-6.062c.446-.446.565-1.124.299-1.695-.357-.765-.656-1.482-.915-2.192-.216-.592-.779-.987-1.41-.987h-8.566z"/><path d="m129 91.968c7.776 0 14.104-6.327 14.104-14.103 0-7.777-6.327-14.104-14.104-14.104s-14.104 6.327-14.104 14.104 6.327 14.103 14.104 14.103zm0-25.206c6.122 0 11.104 4.981 11.104 11.104 0 6.122-4.981 11.103-11.104 11.103s-11.104-4.981-11.104-11.103c0-6.123 4.981-11.104 11.104-11.104z"/></g></g><g fill="#3f3679"><path d="m114.437 164.888h-9.435c-.507 0-.959.323-1.122.803l-1.302 3.813c-.164.48-.615.803-1.122.803h-5.011c-.825 0-1.398-.822-1.113-1.597l10.006-27.12c.172-.466.616-.775 1.113-.775h6.622c.497 0 .941.309 1.113.775l10.006 27.12c.286.774-.287 1.597-1.113 1.597h-5.095c-.507 0-.959-.323-1.122-.803l-1.302-3.813c-.164-.48-.615-.803-1.123-.803zm-1.53-7.028-2.05-6.057c-.363-1.072-1.879-1.075-2.245-.004l-2.073 6.057c-.263.77.309 1.57 1.122 1.57h4.123c.812 0 1.384-.797 1.123-1.566z"/><path d="m134.736 161.074v8.047c0 .655-.531 1.186-1.186 1.186h-4.811c-.655 0-1.186-.531-1.186-1.186v-27.33c0-.655.531-1.186 1.186-1.186h10.452c3.528 0 6.217.875 8.065 2.626s2.773 4.11 2.773 7.079c0 1.848-.414 3.494-1.239 4.937s-2.051 2.576-3.675 3.402c-1.626.827-3.6 1.239-5.923 1.239h-3.269c-.656 0-1.187.531-1.187 1.186zm7.984-10.765c0-2.605-1.443-3.908-4.327-3.908h-2.471c-.655 0-1.186.531-1.186 1.186v5.358c0 .655.531 1.186 1.186 1.186h2.471c2.884.001 4.327-1.273 4.327-3.822z"/><path d="m160.743 141.791v27.33c0 .655-.531 1.186-1.186 1.186h-4.811c-.655 0-1.186-.531-1.186-1.186v-27.33c0-.655.531-1.186 1.186-1.186h4.811c.655 0 1.186.531 1.186 1.186z"/></g></g></svg>