<svg id="Capa_1" enable-background="new 0 0 512 512" height="512" viewBox="0 0 512 512" width="512" xmlns="http://www.w3.org/2000/svg"><g><path d="m256 7.5v497c137.243 0 248.5-111.257 248.5-248.5s-111.257-248.5-248.5-248.5z" fill="#3b88f5"/><path d="m474.5 256c0-137.243-97.826-248.5-218.5-248.5-137.243 0-248.5 111.257-248.5 248.5s111.257 248.5 248.5 248.5c120.674 0 218.5-111.257 218.5-248.5z" fill="#28abfa"/><path d="m384.478 230.011c0-.01-170.201-98.276-170.201-98.276-5.165-2.975-11.132-4.359-17.1-3.951l-.005 256.432c5.968.407 11.935-.977 17.096-3.956l170.21-98.271c8.976-5.185 15.022-14.878 15.022-25.989s-6.045-20.804-15.022-25.989z" fill="#c4f3ff"/><path d="m356.435 281.989c7.807-5.185 13.065-14.878 13.065-25.989s-5.258-20.804-13.065-25.989c0-.01-148.026-98.276-148.026-98.276-3.439-2.278-7.288-3.626-11.233-3.951-4.417.301-8.834 1.579-12.927 3.942-9.623 5.556-14.994 15.638-14.996 26.004-.009.005-.009 196.537-.009 196.537.011 10.371 5.382 20.453 15.005 26.009 4.091 2.362 8.508 3.64 12.922 3.941 3.945-.325 7.793-1.675 11.23-3.956z" fill="#fff"/><path d="m437.02 74.98c-48.353-48.351-112.64-74.98-181.02-74.98s-132.667 26.629-181.02 74.98c-48.351 48.353-74.98 112.64-74.98 181.02s26.629 132.667 74.98 181.02c48.353 48.351 112.64 74.98 181.02 74.98s132.667-26.629 181.02-74.98c48.351-48.353 74.98-112.64 74.98-181.02s-26.629-132.667-74.98-181.02zm-181.02 422.02c-132.888 0-241-108.112-241-241s108.112-241 241-241 241 108.112 241 241-108.112 241-241 241z"/><path d="m388.23 223.517c-.633-.367-1.274-.737-1.911-1.105l-168.299-97.176c-11.587-6.674-25.965-6.676-37.52-.005-11.561 6.674-18.744 19.126-18.746 32.498h.072c-.073 1.067-.073 2.252-.073 3.578l-.007 79.693c0 4.143 3.357 7.5 7.5 7.5s7.5-3.358 7.5-7.5c0-.818.003-81.584.008-83.219v-.051c.001-8.03 4.31-15.505 11.246-19.509 6.934-4.003 15.568-3.999 22.527.009 1.682.971 167.951 96.967 170.152 98.247.016.009.032.019.048.028 6.954 4.017 11.273 11.487 11.273 19.495s-4.319 15.478-11.271 19.494l-170.209 98.27c-6.955 4.014-15.583 4.019-22.519.015-6.934-4.003-11.247-11.483-11.255-19.514v-83.265c0-4.142-3.358-7.5-7.5-7.5s-7.5 3.358-7.5 7.5l-.001 83.273c.014 13.373 7.2 25.825 18.755 32.496 5.776 3.335 12.255 5.002 18.737 5.002 6.492 0 12.986-1.672 18.781-5.017l170.212-98.271c11.578-6.688 18.77-19.134 18.77-32.483s-7.192-25.795-18.77-32.483z"/></g></svg>