<svg id="Capa_1" enable-background="new 0 0 512 512" height="512" viewBox="0 0 512 512" width="512" xmlns="http://www.w3.org/2000/svg"><g><path d="m502.639 286.465c1.221-9.985 1.861-20.15 1.861-30.465s-.64-20.48-1.861-30.465l-39.507-9.877c-1.876-9.687-4.408-19.139-7.56-28.304l29.257-28.289c-3.936-9.258-8.463-18.381-13.621-27.314s-10.795-17.416-16.844-25.453l-39.181 11.208c-6.411-7.363-13.324-14.276-20.687-20.687l11.208-39.181c-8.037-6.05-16.52-11.687-25.453-16.845-8.933-5.157-18.056-9.685-27.314-13.621l-28.289 29.257c-9.165-3.152-18.617-5.684-28.304-7.56l-9.877-39.507c-9.987-1.222-20.152-1.862-30.467-1.862s-20.48.64-30.465 1.861l-9.877 39.508c-9.687 1.876-19.139 4.408-28.304 7.56l-28.289-29.257c-9.258 3.935-18.381 8.463-27.314 13.621s-17.416 10.795-25.453 16.844l11.208 39.181c-7.363 6.411-14.276 13.324-20.687 20.687l-39.181-11.208c-6.05 8.037-11.687 16.52-16.845 25.453-5.157 8.933-9.685 18.056-13.621 27.314l29.257 28.289c-3.152 9.165-5.684 18.617-7.56 28.304l-39.507 9.877c-1.222 9.986-1.862 20.151-1.862 30.466s.64 20.48 1.861 30.465l39.508 9.877c1.876 9.687 4.408 19.139 7.56 28.304l-29.257 28.289c3.935 9.258 8.463 18.381 13.621 27.314s10.795 17.416 16.844 25.453l39.181-11.208c6.411 7.363 13.324 14.276 20.687 20.687l-11.208 39.18c8.037 6.05 16.52 11.687 25.453 16.845s18.056 9.685 27.314 13.621l28.289-29.257c9.165 3.152 18.617 5.684 28.304 7.56l9.877 39.507c9.985 1.221 20.15 1.861 30.465 1.861s20.48-.64 30.465-1.861l9.877-39.508c9.687-1.876 19.139-4.408 28.304-7.56l28.289 29.257c9.258-3.935 18.381-8.463 27.314-13.621s17.416-10.794 25.453-16.844l-11.208-39.181c7.363-6.411 14.276-13.325 20.687-20.687l39.181 11.208c6.05-8.037 11.687-16.52 16.844-25.453s9.685-18.056 13.621-27.314l-29.257-28.289c3.152-9.165 5.684-18.617 7.56-28.304zm-246.639 120.535c-83.395 0-151-67.605-151-151s67.605-151 151-151 151 67.605 151 151-67.605 151-151 151z" fill="#acd5df"/><path d="m256 75c68.008 0 136 81.036 136 181s-67.992 181-136 181c99.964 0 181-81.036 181-181s-81.036-181-181-181z" fill="#728e95"/><path d="m407 256c0-99.964-67.605-181-151-181-99.964 0-181 81.036-181 181s81.036 181 181 181c83.395 0 151-81.036 151-181zm-268.644 28.418c-2.194-9.114-3.356-18.63-3.356-28.418 0-55.003 36.701-101.431 86.948-116.138 9.536-2.791 19.052 4.507 19.052 14.443v59.266c-17.476 6.179-30 22.838-30 42.429 0 2.809.27 5.553.763 8.22l-51.325 29.633c-8.664 5.001-19.741.291-22.082-9.435zm201.077 59.255c-6.796 6.457-14.456 12.222-22.933 17.116-47.634 27.501-106.192 18.932-144.053-17.231-7.185-6.863-5.623-18.753 2.982-23.72l51.326-29.633c14.089 12.045 34.778 14.562 51.745 4.766 2.433-1.404 4.674-3.01 6.737-4.77l51.325 29.633c8.664 5.001 10.123 16.949 2.871 23.839zm-39.188-79.449c3.387-18.224-4.778-37.4-21.745-47.195-2.433-1.404-4.944-2.543-7.5-3.449v-59.265c0-10.004 9.617-17.242 19.211-14.406 8.99 2.657 17.813 6.409 26.289 11.302 47.634 27.501 69.491 82.499 57.104 133.369-2.351 9.654-13.429 14.245-22.033 9.278z" fill="#83a3ab"/><circle cx="256" cy="256" fill="#acd5df" r="15"/><path d="m233.5 256c0 12.407 10.094 22.5 22.5 22.5s22.5-10.093 22.5-22.5-10.094-22.5-22.5-22.5-22.5 10.093-22.5 22.5zm30 0c0 4.136-3.364 7.5-7.5 7.5s-7.5-3.364-7.5-7.5 3.364-7.5 7.5-7.5 7.5 3.364 7.5 7.5z"/><path d="m510.083 224.625c-.377-3.082-2.613-5.613-5.625-6.366l-34.929-8.732c-1.467-6.769-3.26-13.483-5.356-20.058l25.868-25.013c2.232-2.158 2.904-5.468 1.689-8.326-4.102-9.648-8.821-19.112-14.028-28.13-5.205-9.016-11.041-17.835-17.347-26.213-1.867-2.48-5.072-3.552-8.055-2.701l-34.651 9.912c-4.641-5.099-9.545-10.003-14.647-14.647l9.912-34.651c.854-2.985-.22-6.188-2.7-8.055-8.375-6.304-17.194-12.141-26.214-17.348-9.022-5.208-18.487-9.928-28.13-14.027-2.857-1.214-6.169-.543-8.326 1.689l-25.013 25.869c-6.571-2.096-13.286-3.889-20.059-5.356l-8.731-34.928c-.753-3.012-3.284-5.249-6.366-5.625-10.398-1.274-20.955-1.919-31.375-1.919s-20.977.645-31.375 1.917c-3.082.377-5.613 2.613-6.366 5.625l-8.731 34.928c-6.772 1.468-13.487 3.261-20.059 5.356l-25.013-25.869c-2.158-2.232-5.469-2.903-8.326-1.689-9.643 4.1-19.107 8.819-28.13 14.028-9.02 5.207-17.839 11.044-26.214 17.348-2.48 1.867-3.554 5.07-2.7 8.055l9.912 34.651c-5.103 4.645-10.007 9.548-14.647 14.647l-34.651-9.911c-2.98-.851-6.188.219-8.055 2.7-6.301 8.37-12.138 17.19-17.348 26.213-5.207 9.019-9.927 18.483-14.028 28.131-1.215 2.857-.543 6.167 1.689 8.326l25.868 25.013c-2.097 6.574-3.89 13.289-5.356 20.057l-34.929 8.732c-3.012.753-5.248 3.284-5.625 6.366-1.271 10.404-1.916 20.96-1.916 31.376s.645 20.972 1.917 31.375c.377 3.082 2.613 5.613 5.625 6.366l34.929 8.732c1.467 6.769 3.26 13.483 5.356 20.057l-25.868 25.013c-2.232 2.158-2.904 5.468-1.689 8.326 4.102 9.648 8.821 19.112 14.028 28.13 5.208 9.022 11.045 17.841 17.347 26.213 1.868 2.481 5.073 3.553 8.055 2.701l34.651-9.912c4.641 5.099 9.545 10.003 14.647 14.647l-9.912 34.652c-.854 2.985.22 6.188 2.7 8.055 8.376 6.305 17.195 12.141 26.214 17.347 9.021 5.208 18.486 9.928 28.13 14.028 2.857 1.213 6.168.543 8.326-1.689l25.013-25.869c6.57 2.096 13.285 3.889 20.059 5.357l8.731 34.928c.753 3.012 3.284 5.249 6.366 5.625 10.398 1.273 20.955 1.918 31.375 1.918s20.977-.645 31.375-1.917c3.082-.377 5.613-2.613 6.366-5.625l8.731-34.928c6.773-1.468 13.488-3.261 20.059-5.357l25.013 25.869c2.157 2.232 5.469 2.902 8.326 1.689 9.644-4.1 19.108-8.82 28.13-14.028 9.019-5.207 17.838-11.043 26.214-17.348 2.48-1.867 3.554-5.07 2.7-8.055l-9.912-34.651c5.103-4.645 10.007-9.548 14.647-14.647l34.651 9.912c2.986.853 6.188-.22 8.055-2.701 6.306-8.378 12.142-17.197 17.347-26.213 5.207-9.019 9.927-18.483 14.028-28.131 1.215-2.857.543-6.167-1.689-8.326l-25.868-25.013c2.097-6.574 3.89-13.289 5.356-20.057l34.929-8.732c3.012-.753 5.248-3.284 5.625-6.366 1.272-10.403 1.917-20.959 1.917-31.375s-.645-20.972-1.917-31.375zm-14.319 55.828-34.452 8.613c-2.828.707-4.99 2.989-5.544 5.851-1.791 9.25-4.243 18.433-7.289 27.291-.946 2.754-.214 5.807 1.88 7.831l25.51 24.666c-3.358 7.46-7.101 14.772-11.156 21.796-4.054 7.022-8.515 13.918-13.297 20.559l-34.171-9.774c-2.8-.801-5.809.091-7.719 2.286-6.159 7.074-12.873 13.788-19.956 19.956-2.194 1.912-3.086 4.92-2.285 7.719l9.774 34.17c-6.639 4.781-13.535 9.243-20.559 13.297-7.025 4.056-14.338 7.798-21.796 11.156l-24.666-25.51c-2.025-2.094-5.077-2.826-7.831-1.879-8.85 3.044-18.032 5.497-27.291 7.29-2.862.554-5.144 2.716-5.851 5.544l-8.612 34.451c-16.271 1.642-32.635 1.642-48.906 0l-8.612-34.451c-.707-2.828-2.988-4.99-5.851-5.544-9.259-1.793-18.441-4.246-27.291-7.29-2.756-.947-5.807-.215-7.831 1.879l-24.666 25.51c-7.458-3.357-14.771-7.1-21.796-11.156-7.023-4.054-13.92-8.516-20.559-13.297l9.774-34.17c.801-2.798-.091-5.807-2.285-7.719-7.083-6.167-13.797-12.881-19.956-19.956-1.911-2.195-4.919-3.086-7.719-2.286l-34.171 9.775c-4.779-6.637-9.241-13.533-13.297-20.56-4.056-7.023-7.798-14.335-11.156-21.795l25.51-24.666c2.094-2.024 2.826-5.077 1.88-7.831-3.046-8.858-5.498-18.04-7.289-27.291-.554-2.862-2.716-5.144-5.544-5.851l-34.452-8.613c-.821-8.14-1.236-16.343-1.236-24.454s.415-16.314 1.236-24.453l34.452-8.613c2.828-.707 4.99-2.989 5.544-5.851 1.791-9.25 4.243-18.433 7.289-27.291.946-2.754.214-5.807-1.88-7.831l-25.51-24.666c3.358-7.46 7.101-14.772 11.156-21.796 4.057-7.027 8.519-13.924 13.298-20.559l34.17 9.775c2.799.8 5.808-.091 7.719-2.286 6.159-7.074 12.873-13.788 19.956-19.956 2.194-1.912 3.086-4.92 2.285-7.719l-9.774-34.17c6.638-4.781 13.534-9.242 20.559-13.298 7.026-4.056 14.338-7.798 21.796-11.155l24.666 25.51c2.024 2.094 5.075 2.824 7.831 1.879 8.851-3.044 18.033-5.496 27.291-7.289 2.862-.554 5.144-2.716 5.851-5.544l8.612-34.451c16.271-1.642 32.635-1.642 48.906 0l8.612 34.451c.707 2.828 2.988 4.99 5.851 5.544 9.258 1.793 18.44 4.245 27.291 7.289 2.754.945 5.806.214 7.831-1.879l24.666-25.51c7.458 3.357 14.77 7.099 21.796 11.155 7.024 4.055 13.921 8.517 20.559 13.298l-9.774 34.17c-.801 2.798.091 5.807 2.285 7.719 7.083 6.167 13.797 12.881 19.956 19.956 1.911 2.195 4.92 3.087 7.719 2.286l34.171-9.774c4.782 6.64 9.243 13.536 13.297 20.559 4.056 7.023 7.797 14.335 11.156 21.795l-25.51 24.666c-2.094 2.024-2.826 5.077-1.88 7.83 3.046 8.859 5.499 18.042 7.289 27.292.554 2.862 2.716 5.144 5.544 5.851l34.452 8.613c.821 8.139 1.236 16.342 1.236 24.453s-.415 16.314-1.236 24.453z"/><path d="m239.456 136.24c-5.683-4.258-12.833-5.562-19.614-3.577-26.117 7.645-49.621 23.845-66.181 45.616-17.114 22.503-26.161 49.378-26.161 77.721 0 10.197 1.199 20.349 3.564 30.173 1.671 6.942 6.398 12.542 12.971 15.364 2.881 1.237 5.905 1.851 8.916 1.851 3.88 0 7.738-1.02 11.236-3.04l51.325-29.632c2.75-1.588 4.202-4.736 3.625-7.859-.423-2.288-.638-4.594-.638-6.856 0-15.862 10.047-30.072 25-35.358 2.996-1.06 5-3.893 5-7.071v-59.266c.001-7.175-3.295-13.76-9.043-18.066zm-5.956 72.323c-18.145 8.61-30 27.047-30 47.437 0 1.402.059 2.815.174 4.229l-46.986 27.127c-2.075 1.198-4.53 1.342-6.735.396-2.183-.937-3.751-2.792-4.304-5.09-2.089-8.677-3.148-17.647-3.148-26.663 0-50.087 33.537-94.885 81.555-108.94.672-.197 1.354-.293 2.033-.293 1.551 0 3.076.505 4.374 1.478 1.931 1.447 3.038 3.656 3.038 6.061v54.258z"/><path d="m340.313 313.338-51.325-29.633c-2.748-1.588-6.201-1.272-8.618.79-1.771 1.512-3.662 2.851-5.619 3.98-13.737 7.932-31.066 6.336-43.121-3.971-2.418-2.066-5.874-2.383-8.624-.794l-51.325 29.633c-6.213 3.587-10.267 9.733-11.123 16.864-.846 7.05 1.6 13.894 6.71 18.775 19.68 18.796 45.461 31.05 72.595 34.505 5.495.7 10.978 1.047 16.431 1.047 22.38 0 44.222-5.855 63.958-17.25 8.83-5.098 17.022-11.213 24.349-18.173 5.177-4.918 7.662-11.813 6.819-18.915-.848-7.127-4.896-13.271-11.107-16.858zm-6.046 24.898c-6.47 6.147-13.709 11.55-21.517 16.058-43.376 25.042-98.941 18.4-135.122-16.159-1.662-1.587-2.456-3.826-2.178-6.141.287-2.395 1.646-4.458 3.729-5.661l46.988-27.129c16.53 11.409 38.425 12.458 56.082 2.262 1.214-.701 2.408-1.458 3.576-2.266l46.986 27.128c2.075 1.198 3.428 3.252 3.71 5.635.282 2.359-.541 4.645-2.254 6.273z"/><path d="m367.987 301.553c6.529-2.792 11.232-8.333 12.904-15.199 6.438-26.44 4.16-54.895-6.415-80.121-10.93-26.073-29.681-47.346-54.227-61.517-8.829-5.098-18.221-9.135-27.913-12-6.85-2.024-14.062-.729-19.791 3.552-5.749 4.296-9.046 10.874-9.046 18.047v59.265c0 3.176 2 6.007 4.993 7.069 2.193.778 4.299 1.745 6.257 2.876 13.737 7.931 21.02 23.736 18.121 39.329-.58 3.125.871 6.276 3.624 7.866l51.325 29.633c3.503 2.022 7.367 3.043 11.255 3.043 3.01 0 6.032-.611 8.913-1.843zm-59.655-41.321c1.614-20.019-8.425-39.504-26.082-49.699-1.215-.701-2.467-1.357-3.75-1.964v-54.255c0-2.396 1.103-4.594 3.024-6.031 1.904-1.421 4.295-1.853 6.561-1.183 8.56 2.53 16.858 6.098 24.665 10.605 43.377 25.044 65.404 76.486 53.567 125.099-.544 2.233-2.085 4.039-4.229 4.956-2.219.949-4.685.804-6.769-.399z"/><path d="m256 67.5c-61.703 0-119.599 30.295-154.872 81.039-2.364 3.401-1.523 8.075 1.878 10.439 3.401 2.366 8.076 1.523 10.438-1.877 32.471-46.713 85.763-74.601 142.556-74.601 95.668 0 173.5 77.832 173.5 173.5s-77.832 173.5-173.5 173.5-173.5-77.832-173.5-173.5c0-25.874 5.565-50.774 16.543-74.01 1.77-3.745.168-8.216-3.577-9.985-3.743-1.769-8.216-.168-9.985 3.578-11.931 25.254-17.981 52.311-17.981 80.417 0 103.939 84.561 188.5 188.5 188.5s188.5-84.561 188.5-188.5-84.561-188.5-188.5-188.5z"/></g></svg>