<svg id="Capa_1" enable-background="new 0 0 512 512" height="512" viewBox="0 0 512 512" width="512" xmlns="http://www.w3.org/2000/svg"><g><path d="m256 7.5v497c137.243 0 248.5-111.257 248.5-248.5s-111.257-248.5-248.5-248.5z" fill="#ff3e3a"/><path d="m474.5 256c0-137.243-97.826-248.5-218.5-248.5-137.243 0-248.5 111.257-248.5 248.5s111.257 248.5 248.5 248.5c120.674 0 218.5-111.257 218.5-248.5z" fill="#ff5d34"/><path d="m337.252 145.743h-30v220.513h30c16.569 0 30-13.431 30-30v-160.513c0-16.568-13.431-30-30-30z" fill="#c4f3ff"/><path d="m337.252 336.257v-160.514c0-16.569-13.431-30-30-30h-130.513c-16.569 0-30 13.431-30 30v160.513c0 16.569 13.431 30 30 30h130.513c16.569.001 30-13.431 30-29.999z" fill="#fff"/><path d="m437.02 74.98c-48.352-48.351-112.64-74.98-181.02-74.98s-132.667 26.629-181.02 74.98c-48.351 48.353-74.98 112.64-74.98 181.02s26.629 132.667 74.98 181.02c48.353 48.351 112.64 74.98 181.02 74.98s132.668-26.629 181.02-74.98c48.351-48.353 74.98-112.64 74.98-181.02s-26.629-132.667-74.98-181.02zm-181.02 422.02c-132.888 0-241-108.112-241-241s108.112-241 241-241 241 108.112 241 241-108.112 241-241 241z"/><path d="m337.252 138.243h-160.513c-20.678 0-37.5 16.822-37.5 37.5v65.257c0 4.142 3.358 7.5 7.5 7.5s7.5-3.358 7.5-7.5v-65.257c0-12.407 10.093-22.5 22.5-22.5h160.513c12.406 0 22.5 10.093 22.5 22.5v160.514c0 12.407-10.094 22.5-22.5 22.5h-160.513c-12.407 0-22.5-10.093-22.5-22.5v-65.257c0-4.142-3.358-7.5-7.5-7.5s-7.5 3.358-7.5 7.5v65.257c0 20.678 16.822 37.5 37.5 37.5h160.513c20.678 0 37.5-16.822 37.5-37.5v-160.514c0-20.678-16.822-37.5-37.5-37.5z"/></g></svg>