<svg id="Layer_1" enable-background="new 0 0 256 256" height="512" viewBox="0 0 256 256" width="512" xmlns="http://www.w3.org/2000/svg"><g><g><g><path d="m224.345 202.472h-192.69c-8.465 0-15.327-6.862-15.327-15.327v-160.679c0-8.465 6.862-15.327 15.327-15.327h192.691c8.465 0 15.327 6.862 15.327 15.327v160.679c0 8.465-6.863 15.327-15.328 15.327z" fill="#cecece"/><g><path d="m30.994 187.145v-160.679c0-8.465 6.862-15.327 15.327-15.327h-14.666c-8.465 0-15.327 6.862-15.327 15.327v160.679c0 8.465 6.862 15.327 15.327 15.327h14.667c-8.466 0-15.328-6.862-15.328-15.327z" fill="#afafaf"/></g><g><path d="m225.006 187.145v-160.679c0-8.465-6.862-15.327-15.327-15.327h14.667c8.465 0 15.327 6.862 15.327 15.327v160.679c0 8.465-6.862 15.327-15.327 15.327h-14.667c8.465 0 15.327-6.862 15.327-15.327z" fill="#e2e2e2"/></g><path d="m239.673 26.466c0-8.465-6.862-15.327-15.327-15.327h-192.691c-8.465 0-15.327 6.862-15.327 15.327v26.673h223.345z" fill="#f8af23"/><g><path d="m46.321 11.139h-14.666c-8.465 0-15.327 6.862-15.327 15.327v26.673h14.667v-26.673c-.001-8.465 6.861-15.327 15.326-15.327z" fill="#f87023"/></g><g><path d="m209.679 11.139h14.667c8.465 0 15.327 6.862 15.327 15.327v26.673h-14.667v-26.673c0-8.465-6.862-15.327-15.327-15.327z" fill="#f8d323"/></g><g fill="#f46275"><g><circle cx="43.688" cy="32.138" r="7"/><circle cx="70.65" cy="32.138" r="7"/><circle cx="97.612" cy="32.138" r="7"/></g><path d="m213.979 37.93h-88.573c-2.933 0-5.333-2.4-5.333-5.333 0-2.933 2.4-5.333 5.333-5.333h88.573c2.933 0 5.333 2.4 5.333 5.333.001 2.933-2.399 5.333-5.333 5.333z"/></g></g><g><circle cx="128" cy="154.05" fill="#63bce7" r="79.838"/><g><g><path d="m168.526 113.524-3.678-3.678-9.032 9.032-1.435 3.357-36.497 36.497 5.434 5.434 36.497-36.497 3.357-1.435 9.032-9.032z" fill="#cecece"/><path d="m129.818 152.232c-3.802-3.802-10.023-3.802-13.825 0l-29.346 29.346c-3.802 3.802-3.802 10.023 0 13.825 3.802 3.802 10.023 3.802 13.825 0l29.346-29.346c3.801-3.802 3.801-10.023 0-13.825z" fill="#9e9e9e"/></g><g><path d="m158.12 172.335-48.404-48.404c.943-4.764-.431-9.895-4.122-13.586-3.692-3.692-8.823-5.065-13.586-4.122l10.467 10.467c.565.565.761 1.402.507 2.159l-2.228 6.629c-.21.625-.7 1.115-1.325 1.325l-6.629 2.228c-.758.254-1.594.058-2.159-.507l-10.467-10.467c-.943 4.764.43 9.895 4.122 13.586 3.692 3.692 8.823 5.065 13.586 4.122l48.404 48.404c-.942 4.763.43 9.894 4.121 13.585 5.882 5.882 15.417 5.881 21.299 0 5.882-5.882 5.882-15.417 0-21.299-3.693-3.691-8.823-5.062-13.586-4.12zm11.013 16.935-5.913 5.913-8.078-2.164-2.164-8.078 5.913-5.913 8.078 2.165z" fill="#cecece"/></g></g></g></g><g fill="#3f3679"><path d="m43.688 40.639c4.687 0 8.5-3.813 8.5-8.5s-3.813-8.5-8.5-8.5-8.5 3.813-8.5 8.5 3.813 8.5 8.5 8.5zm0-14c3.032 0 5.5 2.467 5.5 5.5s-2.468 5.5-5.5 5.5-5.5-2.467-5.5-5.5 2.467-5.5 5.5-5.5z"/><path d="m70.649 40.639c4.687 0 8.5-3.813 8.5-8.5s-3.813-8.5-8.5-8.5-8.5 3.813-8.5 8.5 3.814 8.5 8.5 8.5zm0-14c3.032 0 5.5 2.467 5.5 5.5s-2.468 5.5-5.5 5.5-5.5-2.467-5.5-5.5 2.468-5.5 5.5-5.5z"/><path d="m97.612 40.639c4.687 0 8.5-3.813 8.5-8.5s-3.813-8.5-8.5-8.5-8.5 3.813-8.5 8.5 3.814 8.5 8.5 8.5zm0-14c3.032 0 5.5 2.467 5.5 5.5s-2.468 5.5-5.5 5.5-5.5-2.467-5.5-5.5 2.468-5.5 5.5-5.5z"/><path d="m125.406 39.43h88.573c3.768 0 6.833-3.065 6.833-6.833s-3.065-6.833-6.833-6.833h-88.573c-3.768 0-6.833 3.065-6.833 6.833s3.066 6.833 6.833 6.833zm0-10.666h88.573c2.113 0 3.833 1.719 3.833 3.833s-1.72 3.833-3.833 3.833h-88.573c-2.113 0-3.833-1.72-3.833-3.833s1.72-3.833 3.833-3.833z"/><path d="m168.418 180.804c-.139-.518-.543-.922-1.061-1.061l-8.078-2.165c-.518-.139-1.069.008-1.449.388l-5.913 5.914c-.379.379-.527.931-.389 1.449l2.164 8.078c.139.518.543.922 1.061 1.061l8.078 2.165c.129.035.259.051.389.051.393 0 .775-.154 1.061-.439l5.913-5.914c.379-.379.527-.931.389-1.449zm-5.647 12.706-6.405-1.716-1.716-6.405 4.688-4.689 6.405 1.716 1.716 6.405z"/><path d="m158.631 170.725-19.875-19.875 21.915-21.915 3.091-1.321c.176-.075.336-.184.471-.319l9.032-9.032c.586-.585.586-1.535 0-2.121l-7.355-7.356c-.586-.586-1.535-.586-2.121 0l-9.032 9.032c-.136.135-.243.295-.318.471l-1.322 3.091-21.917 21.915-19.875-19.875c.767-5.181-.948-10.413-4.672-14.135-3.913-3.915-9.497-5.61-14.938-4.534-.543.108-.983.506-1.145 1.036s-.017 1.105.375 1.497l10.467 10.467c.163.164.22.402.146.621l-2.228 6.628c-.06.179-.202.321-.38.381l-6.63 2.229c-.215.073-.459.016-.621-.146l-10.467-10.467c-.392-.392-.969-.537-1.497-.375-.529.161-.928.601-1.035 1.144-1.076 5.439.619 11.024 4.533 14.938 3.723 3.723 8.954 5.436 14.137 4.672l15.679 15.679-27.464 27.463c-4.396 4.396-4.396 11.55 0 15.946 2.198 2.198 5.086 3.297 7.973 3.297 2.888 0 5.775-1.099 7.974-3.297l27.463-27.463 15.68 15.68c-.766 5.182.949 10.414 4.67 14.135 3.128 3.128 7.287 4.851 11.71 4.851 4.424 0 8.583-1.723 11.71-4.851 3.128-3.128 4.851-7.287 4.851-11.71 0-4.424-1.723-8.583-4.851-11.71-3.722-3.722-8.951-5.438-14.134-4.671zm-3.19-47.43c.136-.135.243-.295.318-.471l1.322-3.091 7.767-7.767 5.234 5.235-7.767 7.767-3.091 1.321c-.176.075-.336.184-.471.319l-22.12 22.12-3.313-3.313zm-56.03 71.048c-1.556 1.555-3.634 2.412-5.853 2.412-2.218 0-4.296-.856-5.852-2.412s-2.412-3.634-2.412-5.852.856-4.296 2.412-5.852l27.464-27.463 11.703 11.704zm71.233 2.351c-2.562 2.561-5.966 3.972-9.589 3.972-3.622 0-7.027-1.411-9.589-3.972-3.204-3.204-4.591-7.778-3.709-12.234.097-.491-.058-.998-.411-1.352l-48.404-48.404c-.284-.284-.667-.439-1.061-.439-.097 0-.194.009-.291.028-4.458.883-9.029-.506-12.235-3.711-2.475-2.475-3.866-5.765-3.966-9.188l8.189 8.19c.975.974 2.391 1.307 3.697.868l6.631-2.229c1.063-.358 1.91-1.206 2.268-2.269l2.229-6.629c.439-1.306.106-2.724-.868-3.698l-8.189-8.189c3.422.1 6.713 1.491 9.188 3.967 3.206 3.205 4.594 7.778 3.711 12.233-.097.491.057.998.411 1.352l48.404 48.404c.354.354.859.507 1.352.411 4.455-.882 9.029.506 12.233 3.71 2.562 2.562 3.972 5.967 3.972 9.589s-1.412 7.029-3.973 9.59z"/><path d="m27.323 243.361h-18.003c-.828 0-1.5.671-1.5 1.5s.672 1.5 1.5 1.5h18.003c.828 0 1.5-.671 1.5-1.5s-.672-1.5-1.5-1.5z"/><path d="m246.68 243.361h-18.003c-.828 0-1.5.671-1.5 1.5s.672 1.5 1.5 1.5h18.003c.828 0 1.5-.671 1.5-1.5s-.672-1.5-1.5-1.5z"/><path d="m218.479 243.361h-180.958c-.828 0-1.5.671-1.5 1.5s.672 1.5 1.5 1.5h180.959c.828 0 1.5-.671 1.5-1.5s-.672-1.5-1.501-1.5z"/><path d="m9.32 235.389h237.36c.828 0 1.5-.671 1.5-1.5s-.672-1.5-1.5-1.5h-96.848c16.989-4.741 31.744-14.864 42.316-28.417h32.198c9.278 0 16.827-7.549 16.827-16.827v-160.679c0-9.278-7.549-16.827-16.827-16.827h-192.692c-9.278 0-16.827 7.549-16.827 16.827v160.679c0 9.278 7.549 16.827 16.827 16.827h32.198c10.571 13.553 25.327 23.676 42.316 28.417h-96.848c-.828 0-1.5.671-1.5 1.5s.672 1.5 1.5 1.5zm22.334-222.75h192.691c7.624 0 13.827 6.203 13.827 13.827v25.173h-220.345v-25.173c0-7.625 6.203-13.827 13.827-13.827zm0 188.333c-7.624 0-13.827-6.203-13.827-13.827v-132.506h220.346v132.506c0 7.625-6.203 13.827-13.827 13.827h-29.967c9.408-13.269 14.961-29.454 14.961-46.921 0-44.851-36.488-81.339-81.339-81.339s-81.34 36.488-81.34 81.338c0 17.467 5.553 33.652 14.961 46.921h-29.968zm18.007-46.922c0-43.196 35.143-78.339 78.339-78.339s78.339 35.143 78.339 78.339-35.143 78.338-78.339 78.338-78.339-35.142-78.339-78.338z"/></g></g></svg>